<?xml version="1.0" encoding="UTF-8"?><svg xmlns="http://www.w3.org/2000/svg" xmlns:xlink="http://www.w3.org/1999/xlink" fill-opacity="1" color-rendering="auto" color-interpolation="auto" text-rendering="auto" stroke="black" stroke-linecap="square" width="1250" stroke-miterlimit="10" shape-rendering="auto" stroke-opacity="1" fill="black" stroke-dasharray="none" font-weight="normal" stroke-width="1" height="879" font-family="'Dialog'" font-style="normal" stroke-linejoin="miter" font-size="12" stroke-dashoffset="0" image-rendering="auto">
  <!--Generated by ySVG 2.5-->
  <defs id="genericDefs"/>
  <g>
    <defs id="defs1">
      <linearGradient x1="-72.32" gradientUnits="userSpaceOnUse" x2="268.68" y1="-57.6" y2="16.4" id="linearGradient1" spreadMethod="reflect">
        <stop stop-opacity="1" stop-color="rgb(232,238,247)" offset="0%"/>
        <stop stop-opacity="1" stop-color="rgb(183,201,227)" offset="100%"/>
      </linearGradient>
      <linearGradient x1="39.18" gradientUnits="userSpaceOnUse" x2="157.18" y1="36.4" y2="76.4" id="linearGradient2" spreadMethod="reflect">
        <stop stop-opacity="1" stop-color="rgb(232,238,247)" offset="0%"/>
        <stop stop-opacity="1" stop-color="rgb(183,201,227)" offset="100%"/>
      </linearGradient>
      <linearGradient x1="14.68" gradientUnits="userSpaceOnUse" x2="181.68" y1="96.4" y2="186.4" id="linearGradient3" spreadMethod="reflect">
        <stop stop-opacity="1" stop-color="rgb(232,238,247)" offset="0%"/>
        <stop stop-opacity="1" stop-color="rgb(183,201,227)" offset="100%"/>
      </linearGradient>
      <linearGradient x1="39.18" gradientUnits="userSpaceOnUse" x2="157.18" y1="206.4" y2="246.4" id="linearGradient4" spreadMethod="reflect">
        <stop stop-opacity="1" stop-color="rgb(232,238,247)" offset="0%"/>
        <stop stop-opacity="1" stop-color="rgb(183,201,227)" offset="100%"/>
      </linearGradient>
      <linearGradient x1="-72.32" gradientUnits="userSpaceOnUse" x2="268.68" y1="266.4" y2="340.4" id="linearGradient5" spreadMethod="reflect">
        <stop stop-opacity="1" stop-color="rgb(232,238,247)" offset="0%"/>
        <stop stop-opacity="1" stop-color="rgb(183,201,227)" offset="100%"/>
      </linearGradient>
      <clipPath clipPathUnits="userSpaceOnUse" id="clipPath1">
        <path d="M0 0 L1250 0 L1250 879 L0 879 L0 0 Z"/>
      </clipPath>
      <clipPath clipPathUnits="userSpaceOnUse" id="clipPath2">
        <path d="M-297 -139 L503 -139 L503 423.56 L-297 423.56 L-297 -139 Z"/>
      </clipPath>
    </defs>
    <g fill="white" text-rendering="geometricPrecision" shape-rendering="geometricPrecision" transform="scale(1.5625,1.5625) translate(297,139)" stroke="white">
      <rect x="-297" width="800" height="563" y="-139" clip-path="url(#clipPath2)" stroke="none"/>
    </g>
    <g fill="url(#linearGradient1)" text-rendering="geometricPrecision" shape-rendering="geometricPrecision" transform="matrix(1.5625,0,0,1.5625,464.0625,217.1875)" stroke="url(#linearGradient1)">
      <rect x="-72.32" y="-57.6" clip-path="url(#clipPath2)" width="341" rx="37" ry="37" height="74" stroke="none"/>
    </g>
    <g text-rendering="geometricPrecision" stroke-miterlimit="1.45" shape-rendering="geometricPrecision" transform="matrix(1.5625,0,0,1.5625,464.0625,217.1875)" stroke-linecap="butt">
      <rect x="-72.32" y="-57.6" clip-path="url(#clipPath2)" fill="none" width="341" rx="37" ry="37" height="74"/>
      <text x="-35.8356" xml:space="preserve" y="-16.0648" clip-path="url(#clipPath2)" font-family="sans-serif" stroke="none">Navigates to page via link on Facebook Profile</text>
    </g>
    <g fill="url(#linearGradient2)" text-rendering="geometricPrecision" shape-rendering="geometricPrecision" transform="matrix(1.5625,0,0,1.5625,464.0625,217.1875)" stroke="url(#linearGradient2)">
      <path d="M39.18 36.4 L157.18 36.4 L157.18 76.4 L39.18 76.4 Z" stroke="none" clip-path="url(#clipPath2)"/>
    </g>
    <g text-rendering="geometricPrecision" stroke-miterlimit="1.45" shape-rendering="geometricPrecision" transform="matrix(1.5625,0,0,1.5625,464.0625,217.1875)" stroke-linecap="butt">
      <path fill="none" d="M39.18 36.4 L157.18 36.4 L157.18 76.4 L39.18 76.4 Z" clip-path="url(#clipPath2)"/>
      <text x="47.7835" xml:space="preserve" y="60.9352" clip-path="url(#clipPath2)" font-family="sans-serif" stroke="none">Reads Homepage</text>
    </g>
    <g fill="url(#linearGradient3)" text-rendering="geometricPrecision" shape-rendering="geometricPrecision" transform="matrix(1.5625,0,0,1.5625,464.0625,217.1875)" stroke="url(#linearGradient3)">
      <path d="M98.18 96.4 L181.68 141.4 L98.18 186.4 L14.68 141.4 Z" stroke="none" clip-path="url(#clipPath2)"/>
    </g>
    <g text-rendering="geometricPrecision" stroke-miterlimit="1.45" shape-rendering="geometricPrecision" transform="matrix(1.5625,0,0,1.5625,464.0625,217.1875)" stroke-linecap="butt">
      <path fill="none" d="M98.18 96.4 L181.68 141.4 L98.18 186.4 L14.68 141.4 Z" clip-path="url(#clipPath2)"/>
      <text x="37.7318" xml:space="preserve" y="145.9352" clip-path="url(#clipPath2)" font-family="sans-serif" stroke="none">Navigates to Contact</text>
    </g>
    <g fill="url(#linearGradient4)" text-rendering="geometricPrecision" shape-rendering="geometricPrecision" transform="matrix(1.5625,0,0,1.5625,464.0625,217.1875)" stroke="url(#linearGradient4)">
      <path d="M39.18 206.4 L157.18 206.4 L157.18 246.4 L39.18 246.4 Z" stroke="none" clip-path="url(#clipPath2)"/>
    </g>
    <g text-rendering="geometricPrecision" stroke-miterlimit="1.45" shape-rendering="geometricPrecision" transform="matrix(1.5625,0,0,1.5625,464.0625,217.1875)" stroke-linecap="butt">
      <path fill="none" d="M39.18 206.4 L157.18 206.4 L157.18 246.4 L39.18 246.4 Z" clip-path="url(#clipPath2)"/>
      <text x="56.5609" xml:space="preserve" y="230.9352" clip-path="url(#clipPath2)" font-family="sans-serif" stroke="none">Reads Contact</text>
    </g>
    <g fill="url(#linearGradient5)" text-rendering="geometricPrecision" shape-rendering="geometricPrecision" transform="matrix(1.5625,0,0,1.5625,464.0625,217.1875)" stroke="url(#linearGradient5)">
      <rect x="-72.32" y="266.4" clip-path="url(#clipPath2)" width="341" rx="37" ry="37" height="74" stroke="none"/>
    </g>
    <g text-rendering="geometricPrecision" stroke-miterlimit="1.45" shape-rendering="geometricPrecision" transform="matrix(1.5625,0,0,1.5625,464.0625,217.1875)" stroke-linecap="butt">
      <rect x="-72.32" y="266.4" clip-path="url(#clipPath2)" fill="none" width="341" rx="37" ry="37" height="74"/>
      <text x="-48.8083" xml:space="preserve" y="307.9352" clip-path="url(#clipPath2)" font-family="sans-serif" stroke="none">Copies e-mail to clipboard and closes browser tab</text>
    </g>
    <g text-rendering="geometricPrecision" stroke-miterlimit="1.45" shape-rendering="geometricPrecision" transform="matrix(1.5625,0,0,1.5625,464.0625,217.1875)" stroke-linecap="butt">
      <path fill="none" d="M98.18 16.4 L98.18 28.4" clip-path="url(#clipPath2)"/>
    </g>
    <g text-rendering="geometricPrecision" stroke-miterlimit="1.45" shape-rendering="geometricPrecision" transform="matrix(1.5625,0,0,1.5625,464.0625,217.1875)" stroke-linecap="butt">
      <path d="M98.18 36.4 L103.18 24.4 L98.18 27.4 L93.18 24.4 Z" stroke="none" clip-path="url(#clipPath2)"/>
      <path fill="none" d="M98.18 76.4391 L98.18 88.4" clip-path="url(#clipPath2)"/>
      <path d="M98.18 96.4 L103.18 84.4 L98.18 87.4 L93.18 84.4 Z" clip-path="url(#clipPath2)" stroke="none"/>
      <path fill="none" d="M98.18 186.4 L98.18 198.3609" clip-path="url(#clipPath2)"/>
      <path d="M98.18 206.3609 L103.18 194.3609 L98.18 197.3609 L93.18 194.3609 Z" clip-path="url(#clipPath2)" stroke="none"/>
      <path fill="none" d="M98.18 246.4 L98.18 258.3609" clip-path="url(#clipPath2)"/>
      <path d="M98.18 266.3609 L103.18 254.3609 L98.18 257.3609 L93.18 254.3609 Z" clip-path="url(#clipPath2)" stroke="none"/>
    </g>
  </g>
</svg>
