<?xml version="1.0" encoding="UTF-8"?><svg xmlns="http://www.w3.org/2000/svg" xmlns:xlink="http://www.w3.org/1999/xlink" fill-opacity="1" color-rendering="auto" color-interpolation="auto" text-rendering="auto" stroke="black" stroke-linecap="square" width="1265" stroke-miterlimit="10" shape-rendering="auto" stroke-opacity="1" fill="black" stroke-dasharray="none" font-weight="normal" stroke-width="1" height="894" font-family="'Dialog'" font-style="normal" stroke-linejoin="miter" font-size="12" stroke-dashoffset="0" image-rendering="auto">
  <!--Generated by ySVG 2.5-->
  <defs id="genericDefs"/>
  <g>
    <defs id="defs1">
      <linearGradient x1="-125.0732" gradientUnits="userSpaceOnUse" x2="215.9268" y1="-63.3817" y2="10.6183" id="linearGradient1" spreadMethod="reflect">
        <stop stop-opacity="1" stop-color="rgb(232,238,247)" offset="0%"/>
        <stop stop-opacity="1" stop-color="rgb(183,201,227)" offset="100%"/>
      </linearGradient>
      <linearGradient x1="-13.5732" gradientUnits="userSpaceOnUse" x2="104.4268" y1="30.6183" y2="70.6183" id="linearGradient2" spreadMethod="reflect">
        <stop stop-opacity="1" stop-color="rgb(232,238,247)" offset="0%"/>
        <stop stop-opacity="1" stop-color="rgb(183,201,227)" offset="100%"/>
      </linearGradient>
      <linearGradient x1="-38.0732" gradientUnits="userSpaceOnUse" x2="128.9268" y1="90.6183" y2="180.6183" id="linearGradient3" spreadMethod="reflect">
        <stop stop-opacity="1" stop-color="rgb(232,238,247)" offset="0%"/>
        <stop stop-opacity="1" stop-color="rgb(183,201,227)" offset="100%"/>
      </linearGradient>
      <linearGradient x1="-38.0732" gradientUnits="userSpaceOnUse" x2="128.9268" y1="260.6183" y2="350.6183" id="linearGradient4" spreadMethod="reflect">
        <stop stop-opacity="1" stop-color="rgb(232,238,247)" offset="0%"/>
        <stop stop-opacity="1" stop-color="rgb(183,201,227)" offset="100%"/>
      </linearGradient>
      <linearGradient x1="-13.5732" gradientUnits="userSpaceOnUse" x2="104.4268" y1="200.6183" y2="240.6183" id="linearGradient5" spreadMethod="reflect">
        <stop stop-opacity="1" stop-color="rgb(232,238,247)" offset="0%"/>
        <stop stop-opacity="1" stop-color="rgb(183,201,227)" offset="100%"/>
      </linearGradient>
      <linearGradient x1="-13.5732" gradientUnits="userSpaceOnUse" x2="104.4268" y1="370.6183" y2="410.6183" id="linearGradient6" spreadMethod="reflect">
        <stop stop-opacity="1" stop-color="rgb(232,238,247)" offset="0%"/>
        <stop stop-opacity="1" stop-color="rgb(183,201,227)" offset="100%"/>
      </linearGradient>
      <linearGradient x1="-125.0732" gradientUnits="userSpaceOnUse" x2="215.9268" y1="430.6183" y2="504.6183" id="linearGradient7" spreadMethod="reflect">
        <stop stop-opacity="1" stop-color="rgb(232,238,247)" offset="0%"/>
        <stop stop-opacity="1" stop-color="rgb(183,201,227)" offset="100%"/>
      </linearGradient>
      <clipPath clipPathUnits="userSpaceOnUse" id="clipPath1">
        <path d="M0 0 L1265 0 L1265 894 L0 894 L0 0 Z"/>
      </clipPath>
      <clipPath clipPathUnits="userSpaceOnUse" id="clipPath2">
        <path d="M-475 -152 L594.0376 -152 L594.0376 603.5096 L-475 603.5096 L-475 -152 Z"/>
      </clipPath>
    </defs>
    <g fill="white" text-rendering="geometricPrecision" shape-rendering="geometricPrecision" transform="scale(1.1833,1.1833) translate(475,152)" stroke="white">
      <rect x="-475" width="1070" height="756" y="-152" clip-path="url(#clipPath2)" stroke="none"/>
    </g>
    <g fill="url(#linearGradient1)" text-rendering="geometricPrecision" shape-rendering="geometricPrecision" transform="matrix(1.1833,0,0,1.1833,562.071,179.8627)" stroke="url(#linearGradient1)">
      <rect x="-125.0732" y="-63.3817" clip-path="url(#clipPath2)" width="341" rx="37" ry="37" height="74" stroke="none"/>
    </g>
    <g text-rendering="geometricPrecision" stroke-miterlimit="1.45" shape-rendering="geometricPrecision" transform="matrix(1.1833,0,0,1.1833,562.071,179.8627)" stroke-linecap="butt">
      <rect x="-125.0732" y="-63.3817" clip-path="url(#clipPath2)" fill="none" width="341" rx="37" ry="37" height="74"/>
      <text x="-88.5888" xml:space="preserve" y="-21.8465" clip-path="url(#clipPath2)" font-family="sans-serif" stroke="none">Navigates to page via link on Facebook Profile</text>
    </g>
    <g fill="url(#linearGradient2)" text-rendering="geometricPrecision" shape-rendering="geometricPrecision" transform="matrix(1.1833,0,0,1.1833,562.071,179.8627)" stroke="url(#linearGradient2)">
      <path d="M-13.5732 30.6183 L104.4268 30.6183 L104.4268 70.6183 L-13.5732 70.6183 Z" stroke="none" clip-path="url(#clipPath2)"/>
    </g>
    <g text-rendering="geometricPrecision" stroke-miterlimit="1.45" shape-rendering="geometricPrecision" transform="matrix(1.1833,0,0,1.1833,562.071,179.8627)" stroke-linecap="butt">
      <path fill="none" d="M-13.5732 30.6183 L104.4268 30.6183 L104.4268 70.6183 L-13.5732 70.6183 Z" clip-path="url(#clipPath2)"/>
      <text x="-4.9697" xml:space="preserve" y="55.1535" clip-path="url(#clipPath2)" font-family="sans-serif" stroke="none">Reads Homepage</text>
    </g>
    <g fill="url(#linearGradient3)" text-rendering="geometricPrecision" shape-rendering="geometricPrecision" transform="matrix(1.1833,0,0,1.1833,562.071,179.8627)" stroke="url(#linearGradient3)">
      <path d="M45.4268 90.6183 L128.9268 135.6183 L45.4268 180.6183 L-38.0732 135.6183 Z" stroke="none" clip-path="url(#clipPath2)"/>
    </g>
    <g text-rendering="geometricPrecision" stroke-miterlimit="1.45" shape-rendering="geometricPrecision" transform="matrix(1.1833,0,0,1.1833,562.071,179.8627)" stroke-linecap="butt">
      <path fill="none" d="M45.4268 90.6183 L128.9268 135.6183 L45.4268 180.6183 L-38.0732 135.6183 Z" clip-path="url(#clipPath2)"/>
      <text x="-10.1552" xml:space="preserve" y="140.1535" clip-path="url(#clipPath2)" font-family="sans-serif" stroke="none">Navigates to About</text>
    </g>
    <g fill="url(#linearGradient4)" text-rendering="geometricPrecision" shape-rendering="geometricPrecision" transform="matrix(1.1833,0,0,1.1833,562.071,179.8627)" stroke="url(#linearGradient4)">
      <path d="M45.4268 260.6183 L128.9268 305.6183 L45.4268 350.6183 L-38.0732 305.6183 Z" stroke="none" clip-path="url(#clipPath2)"/>
    </g>
    <g text-rendering="geometricPrecision" stroke-miterlimit="1.45" shape-rendering="geometricPrecision" transform="matrix(1.1833,0,0,1.1833,562.071,179.8627)" stroke-linecap="butt">
      <path fill="none" d="M45.4268 260.6183 L128.9268 305.6183 L45.4268 350.6183 L-38.0732 305.6183 Z" clip-path="url(#clipPath2)"/>
      <text x="-15.0214" xml:space="preserve" y="310.1535" clip-path="url(#clipPath2)" font-family="sans-serif" stroke="none">Navigates to Contact</text>
    </g>
    <g fill="url(#linearGradient5)" text-rendering="geometricPrecision" shape-rendering="geometricPrecision" transform="matrix(1.1833,0,0,1.1833,562.071,179.8627)" stroke="url(#linearGradient5)">
      <path d="M-13.5732 200.6183 L104.4268 200.6183 L104.4268 240.6183 L-13.5732 240.6183 Z" stroke="none" clip-path="url(#clipPath2)"/>
    </g>
    <g text-rendering="geometricPrecision" stroke-miterlimit="1.45" shape-rendering="geometricPrecision" transform="matrix(1.1833,0,0,1.1833,562.071,179.8627)" stroke-linecap="butt">
      <path fill="none" d="M-13.5732 200.6183 L104.4268 200.6183 L104.4268 240.6183 L-13.5732 240.6183 Z" clip-path="url(#clipPath2)"/>
      <text x="8.6739" xml:space="preserve" y="225.1535" clip-path="url(#clipPath2)" font-family="sans-serif" stroke="none">Reads About</text>
    </g>
    <g fill="url(#linearGradient6)" text-rendering="geometricPrecision" shape-rendering="geometricPrecision" transform="matrix(1.1833,0,0,1.1833,562.071,179.8627)" stroke="url(#linearGradient6)">
      <path d="M-13.5732 370.6183 L104.4268 370.6183 L104.4268 410.6183 L-13.5732 410.6183 Z" stroke="none" clip-path="url(#clipPath2)"/>
    </g>
    <g text-rendering="geometricPrecision" stroke-miterlimit="1.45" shape-rendering="geometricPrecision" transform="matrix(1.1833,0,0,1.1833,562.071,179.8627)" stroke-linecap="butt">
      <path fill="none" d="M-13.5732 370.6183 L104.4268 370.6183 L104.4268 410.6183 L-13.5732 410.6183 Z" clip-path="url(#clipPath2)"/>
      <text x="3.8077" xml:space="preserve" y="395.1535" clip-path="url(#clipPath2)" font-family="sans-serif" stroke="none">Reads Contact</text>
    </g>
    <g fill="url(#linearGradient7)" text-rendering="geometricPrecision" shape-rendering="geometricPrecision" transform="matrix(1.1833,0,0,1.1833,562.071,179.8627)" stroke="url(#linearGradient7)">
      <rect x="-125.0732" y="430.6183" clip-path="url(#clipPath2)" width="341" rx="37" ry="37" height="74" stroke="none"/>
    </g>
    <g text-rendering="geometricPrecision" stroke-miterlimit="1.45" shape-rendering="geometricPrecision" transform="matrix(1.1833,0,0,1.1833,562.071,179.8627)" stroke-linecap="butt">
      <rect x="-125.0732" y="430.6183" clip-path="url(#clipPath2)" fill="none" width="341" rx="37" ry="37" height="74"/>
      <text x="-101.5615" xml:space="preserve" y="472.1535" clip-path="url(#clipPath2)" font-family="sans-serif" stroke="none">Copies e-mail to clipboard and closes browser tab</text>
    </g>
    <g text-rendering="geometricPrecision" stroke-miterlimit="1.45" shape-rendering="geometricPrecision" transform="matrix(1.1833,0,0,1.1833,562.071,179.8627)" stroke-linecap="butt">
      <path fill="none" d="M45.4268 10.6183 L45.4268 22.5793" clip-path="url(#clipPath2)"/>
    </g>
    <g text-rendering="geometricPrecision" stroke-miterlimit="1.45" shape-rendering="geometricPrecision" transform="matrix(1.1833,0,0,1.1833,562.071,179.8627)" stroke-linecap="butt">
      <path d="M45.4268 30.5793 L50.4268 18.5793 L45.4268 21.5793 L40.4268 18.5793 Z" stroke="none" clip-path="url(#clipPath2)"/>
      <path fill="none" d="M45.4268 70.6183 L45.4268 82.6183" clip-path="url(#clipPath2)"/>
      <path d="M45.4268 90.6183 L50.4268 78.6183 L45.4268 81.6183 L40.4268 78.6183 Z" clip-path="url(#clipPath2)" stroke="none"/>
      <path fill="none" d="M45.4268 180.6574 L45.4268 192.6183" clip-path="url(#clipPath2)"/>
      <path d="M45.4268 200.6183 L50.4268 188.6183 L45.4268 191.6183 L40.4268 188.6183 Z" clip-path="url(#clipPath2)" stroke="none"/>
      <path fill="none" d="M45.4268 240.6574 L45.4268 252.5793" clip-path="url(#clipPath2)"/>
      <path d="M45.4268 260.5793 L50.4268 248.5793 L45.4268 251.5793 L40.4268 248.5793 Z" clip-path="url(#clipPath2)" stroke="none"/>
      <path fill="none" d="M45.4268 350.6183 L45.4268 362.5793" clip-path="url(#clipPath2)"/>
      <path d="M45.4268 370.5793 L50.4268 358.5793 L45.4268 361.5793 L40.4268 358.5793 Z" clip-path="url(#clipPath2)" stroke="none"/>
      <path fill="none" d="M45.4268 410.6183 L45.4268 422.5793" clip-path="url(#clipPath2)"/>
      <path d="M45.4268 430.5793 L50.4268 418.5793 L45.4268 421.5793 L40.4268 418.5793 Z" clip-path="url(#clipPath2)" stroke="none"/>
    </g>
  </g>
</svg>
